<svg width="19" height="19" viewBox="0 0 19 19" fill="none" xmlns="http://www.w3.org/2000/svg">
<path fill-rule="evenodd" clip-rule="evenodd" d="M2.24072 0.316895C1.41229 0.316895 0.740723 0.988465 0.740723 1.81689V16.8169C0.740723 17.6453 1.41229 18.3169 2.24072 18.3169H17.2407C18.0691 18.3169 18.7407 17.6453 18.7407 16.8169V1.81689C18.7407 0.988465 18.0691 0.316895 17.2407 0.316895H2.24072ZM6.26148 4.31961C6.26711 5.27586 5.55133 5.86508 4.70195 5.86086C3.90179 5.85664 3.20429 5.21961 3.20851 4.32102C3.21273 3.47586 3.8807 2.79664 4.74836 2.81633C5.62867 2.83602 6.26711 3.48149 6.26148 4.31961ZM10.0204 7.07865H7.50043H7.49902V15.6385H10.1624V15.4388C10.1624 15.0589 10.1621 14.6789 10.1618 14.2988C10.161 13.285 10.1601 12.2701 10.1653 11.2566C10.1667 11.0105 10.1779 10.7546 10.2412 10.5197C10.4788 9.64219 11.2678 9.07549 12.1481 9.21479C12.7134 9.30329 13.0874 9.63099 13.2449 10.164C13.342 10.4972 13.3856 10.8558 13.3898 11.2032C13.4012 12.2508 13.3996 13.2984 13.398 14.3461C13.3974 14.7159 13.3968 15.0859 13.3968 15.4557V15.6371H16.0687V15.4318C16.0687 14.9798 16.0685 14.5279 16.0682 14.076C16.0677 12.9465 16.0671 11.817 16.0701 10.6871C16.0715 10.1766 16.0167 9.67319 15.8915 9.17959C15.7045 8.44549 15.3178 7.838 14.6892 7.39929C14.2434 7.08708 13.754 6.88599 13.207 6.86349C13.1447 6.8609 13.0819 6.85751 13.0188 6.8541C12.7391 6.83898 12.4548 6.82363 12.1874 6.87755C11.4224 7.03083 10.7503 7.38099 10.2426 7.99829C10.1836 8.06909 10.1259 8.141 10.0398 8.24829L10.0204 8.27259V7.07865ZM3.42236 15.6413H6.07314V7.08422H3.42236V15.6413Z" fill="#F7FFFB"/>
</svg>
