<svg width="19" height="19" viewBox="0 0 19 19" fill="none" xmlns="http://www.w3.org/2000/svg">
<path fill-rule="evenodd" clip-rule="evenodd" d="M13.7407 0.316895H5.74072C2.9793 0.316895 0.740723 2.55547 0.740723 5.31689V13.3169C0.740723 16.0783 2.9793 18.3169 5.74072 18.3169H13.7407C16.5021 18.3169 18.7407 16.0783 18.7407 13.3169V5.31689C18.7407 2.55547 16.5021 0.316895 13.7407 0.316895ZM16.9907 13.3169C16.9852 15.1095 15.5333 16.5614 13.7407 16.5669H5.74072C3.94807 16.5614 2.49621 15.1095 2.49072 13.3169V5.31689C2.49621 3.52424 3.94807 2.07238 5.74072 2.06689H13.7407C15.5333 2.07238 16.9852 3.52424 16.9907 5.31689V13.3169ZM14.4907 5.56689C15.043 5.56689 15.4907 5.11917 15.4907 4.56689C15.4907 4.01461 15.043 3.56689 14.4907 3.56689C13.9384 3.56689 13.4907 4.01461 13.4907 4.56689C13.4907 5.11917 13.9384 5.56689 14.4907 5.56689ZM9.74072 4.81689C7.25544 4.81689 5.24072 6.83161 5.24072 9.31689C5.24072 11.8022 7.25544 13.8169 9.74072 13.8169C12.226 13.8169 14.2407 11.8022 14.2407 9.31689C14.2434 8.12259 13.7701 6.97646 12.9256 6.13197C12.0811 5.28748 10.935 4.81423 9.74072 4.81689ZM6.99072 9.31689C6.99072 10.8357 8.22192 12.0669 9.74072 12.0669C11.2595 12.0669 12.4907 10.8357 12.4907 9.31689C12.4907 7.79809 11.2595 6.56689 9.74072 6.56689C8.22192 6.56689 6.99072 7.79809 6.99072 9.31689Z" fill="#F7FFFB"/>
</svg>
